<svg id="visual" viewBox="0 0 960 540" width="960" height="540" xmlns="http://www.w3.org/2000/svg" xmlns:xlink="http://www.w3.org/1999/xlink" version="1.1"><rect x="0" y="0" width="960" height="540" fill="#001122"></rect><path d="M614 540L604.5 525C595 510 576 480 571.8 450C567.7 420 578.3 390 598.5 360C618.7 330 648.3 300 667.3 270C686.3 240 694.7 210 682.2 180C669.7 150 636.3 120 607.2 90C578 60 553 30 540.5 15L528 0L960 0L960 15C960 30 960 60 960 90C960 120 960 150 960 180C960 210 960 240 960 270C960 300 960 330 960 360C960 390 960 420 960 450C960 480 960 510 960 525L960 540Z" fill="#F7770F" stroke-linecap="round" stroke-linejoin="miter"></path></svg>