<svg id="visual" viewBox="0 0 675 900" width="675" height="900" xmlns="http://www.w3.org/2000/svg" xmlns:xlink="http://www.w3.org/1999/xlink" version="1.1"><rect x="0" y="0" width="675" height="900" fill="#001122"></rect><path d="M0 661L28.2 641.5C56.3 622 112.7 583 169 575.7C225.3 568.3 281.7 592.7 337.8 622.5C394 652.3 450 687.7 506.2 682C562.3 676.3 618.7 629.7 646.8 606.3L675 583L675 901L646.8 901C618.7 901 562.3 901 506.2 901C450 901 394 901 337.8 901C281.7 901 225.3 901 169 901C112.7 901 56.3 901 28.2 901L0 901Z" fill="#F7770F" stroke-linecap="round" stroke-linejoin="miter"></path></svg>