<svg id="visual" viewBox="0 0 675 900" width="675" height="900" xmlns="http://www.w3.org/2000/svg" xmlns:xlink="http://www.w3.org/1999/xlink" version="1.1"><rect x="0" y="0" width="675" height="900" fill="#001122"></rect><defs><linearGradient id="grad1_0" x1="0%" y1="100%" x2="100%" y2="0%"><stop offset="30%" stop-color="#001122" stop-opacity="1"></stop><stop offset="70%" stop-color="#001122" stop-opacity="1"></stop></linearGradient></defs><defs><linearGradient id="grad2_0" x1="0%" y1="100%" x2="100%" y2="0%"><stop offset="30%" stop-color="#001122" stop-opacity="1"></stop><stop offset="70%" stop-color="#001122" stop-opacity="1"></stop></linearGradient></defs><g transform="translate(675, 900)"><path d="M-421.9 0C-411.5 -75 -401.2 -150 -365.4 -210.9C-329.5 -271.9 -268.1 -318.8 -203 -351.6C-137.9 -384.4 -68.9 -403.1 0 -421.9L0 0Z" fill="#F7770F"></path></g><g transform="translate(0, 0)"><path d="M421.9 0C397.6 65.7 373.3 131.5 341.2 197C309.1 262.5 269.1 327.9 210.9 365.4C152.8 402.8 76.4 412.3 0 421.9L0 0Z" fill="#F7770F"></path></g></svg>