<svg id="visual" viewBox="0 0 675 900" width="675" height="900" xmlns="http://www.w3.org/2000/svg" xmlns:xlink="http://www.w3.org/1999/xlink" version="1.1"><rect x="0" y="0" width="675" height="900" fill="#FFFFFF"></rect><defs><linearGradient id="grad1_0" x1="0%" y1="100%" x2="100%" y2="0%"><stop offset="30%" stop-color="#ffffff" stop-opacity="1"></stop><stop offset="70%" stop-color="#ffffff" stop-opacity="1"></stop></linearGradient></defs><defs><linearGradient id="grad2_0" x1="0%" y1="100%" x2="100%" y2="0%"><stop offset="30%" stop-color="#ffffff" stop-opacity="1"></stop><stop offset="70%" stop-color="#ffffff" stop-opacity="1"></stop></linearGradient></defs><g transform="translate(675, 900)"><path d="M-506.2 0C-502.5 -104.9 -498.7 -209.8 -438.4 -253.1C-378.2 -296.4 -261.5 -278.1 -179 -310C-96.5 -342 -48.3 -424.1 0 -506.2L0 0Z" fill="#F7770F"></path></g><g transform="translate(0, 0)"><path d="M506.3 0C496.9 95.2 487.5 190.4 438.4 253.1C389.4 315.8 300.7 346 221 382.8C141.3 419.6 70.7 462.9 0 506.3L0 0Z" fill="#F7770F"></path></g></svg>