<svg id="visual" viewBox="0 0 960 540" width="960" height="540" xmlns="http://www.w3.org/2000/svg" xmlns:xlink="http://www.w3.org/1999/xlink" version="1.1"><rect x="0" y="0" width="960" height="540" fill="#001122"></rect><defs><linearGradient id="grad1_0" x1="43.8%" y1="100%" x2="100%" y2="0%"><stop offset="14.444444444444446%" stop-color="#001122" stop-opacity="1"></stop><stop offset="85.55555555555554%" stop-color="#001122" stop-opacity="1"></stop></linearGradient></defs><defs><linearGradient id="grad2_0" x1="0%" y1="100%" x2="56.3%" y2="0%"><stop offset="14.444444444444446%" stop-color="#001122" stop-opacity="1"></stop><stop offset="85.55555555555554%" stop-color="#001122" stop-opacity="1"></stop></linearGradient></defs><g transform="translate(960, 540)"><path d="M-351 0C-342.1 -61.9 -333.2 -123.8 -304 -175.5C-274.7 -227.2 -225.1 -268.6 -171 -296.2C-116.9 -323.7 -58.5 -337.4 0 -351L0 0Z" fill="#F7770F"></path></g><g transform="translate(0, 0)"><path d="M351 0C342.1 61.8 333.1 123.6 304 175.5C274.8 227.4 225.5 269.4 171.5 297C117.5 324.6 58.7 337.8 0 351L0 0Z" fill="#F7770F"></path></g></svg>